<svg width="200" height="200" viewBox="0 0 200 200" xmlns="http://www.w3.org/2000/svg">

  <!-- Fond -->
  <rect width="100%" height="100%" rx="40" fill="#0A1F2E"/>

  <!-- Étoile -->
  <polygon points="100,20 108,40 130,40 112,52 120,72 100,60 80,72 88,52 70,40 92,40"
           fill="#4DA3FF"/>

  <!-- Bouclier -->
  <path d="M60 50 L140 50 Q155 80 140 150 Q120 170 100 185 Q80 170 60 150 Q45 80 60 50 Z"
        fill="none"
        stroke="#4DA3FF"
        stroke-width="3"/>

  <!-- Circuit -->
  <line x1="100" y1="70" x2="100" y2="140"
        stroke="#4DA3FF"
        stroke-width="2"/>

  <!-- JF intégré -->
  <path d="M90 130 Q90 145 75 145"
        stroke="#00FFC6"
        stroke-width="2"
        fill="none"/>

  <line x1="105" y1="125" x2="120" y2="125" stroke="#00FFC6" stroke-width="2"/>
  <line x1="105" y1="125" x2="105" y2="145" stroke="#00FFC6" stroke-width="2"/>
  <line x1="105" y1="135" x2="115" y2="135" stroke="#00FFC6" stroke-width="2"/>

</svg>